<?xml version="1.0" standalone="no"?>
<!DOCTYPE svg PUBLIC "-//W3C//DTD SVG 20010904//EN"
 "http://www.w3.org/TR/2001/REC-SVG-20010904/DTD/svg10.dtd">
<svg version="1.0" xmlns="http://www.w3.org/2000/svg"
 width="310.000000pt" height="310.000000pt" viewBox="0 0 310.000000 310.000000"
 preserveAspectRatio="xMidYMid meet">
<metadata>
Created by potrace 1.11, written by Peter Selinger 2001-2013
</metadata>
<g transform="translate(0.000000,310.000000) scale(0.100000,-0.100000)"
fill="#000000" stroke="none">
<path d="M885 3002 c-1 -2 -15 -5 -31 -8 -81 -14 -164 -43 -164 -56 0 -5 -4
-7 -8 -5 -5 1 -31 -12 -58 -30 -70 -46 -155 -131 -177 -180 -6 -13 -14 -23
-19 -23 -5 0 -7 -4 -3 -9 3 -5 -2 -16 -10 -25 -9 -8 -16 -19 -16 -23 0 -14
-11 -57 -18 -68 -3 -5 -6 -14 -7 -20 -1 -5 -5 -28 -9 -50 -10 -52 -12 -175 -3
-175 3 0 5 -8 3 -17 -1 -10 0 -22 4 -28 3 -5 6 -12 6 -15 4 -22 19 -77 24 -85
3 -5 6 -12 6 -15 0 -3 15 -31 33 -62 39 -68 131 -166 187 -199 22 -12 42 -26
45 -29 10 -13 132 -53 168 -55 20 -2 45 -6 54 -10 18 -7 136 -1 178 9 14 3 39
9 55 12 17 3 36 11 43 16 6 6 12 7 12 4 0 -4 13 2 29 13 15 11 31 18 35 14 3
-3 6 -1 6 5 0 7 6 12 13 12 6 0 27 14 45 31 17 16 32 27 32 24 0 -5 52 53 111
123 10 13 19 30 19 37 0 8 5 17 10 20 6 4 8 11 5 16 -4 5 -2 9 3 9 7 0 33 62
38 93 1 4 3 8 4 10 8 8 19 208 11 203 -3 -2 -7 15 -8 37 -2 64 -6 87 -15 87
-4 0 -7 3 -7 8 1 7 0 11 -6 30 -2 4 -6 17 -10 30 -4 12 -11 22 -16 22 -5 0 -9
5 -9 11 0 29 -72 116 -156 189 -35 30 -144 88 -176 94 -13 3 -23 5 -23 6 0 1
-11 4 -25 6 -52 10 -65 13 -65 14 0 3 -137 5 -140 2z"/>
<path d="M2117 2380 c-7 -4 -19 -6 -27 -6 -8 1 -23 -6 -33 -14 -10 -8 -21 -15
-26 -15 -13 0 -61 -37 -90 -69 -14 -16 -31 -34 -36 -40 -18 -19 -54 -99 -49
-108 3 -4 1 -8 -4 -8 -5 0 -10 -6 -11 -12 -5 -32 -3 -156 3 -182 10 -40 49
-116 80 -151 14 -16 26 -34 26 -38 0 -5 5 -5 10 -2 6 3 13 -1 16 -9 3 -9 12
-16 19 -16 7 0 18 -7 25 -15 7 -8 21 -15 31 -15 11 0 19 -5 19 -11 0 -6 6 -9
14 -6 8 3 17 3 20 -1 16 -15 156 -23 156 -8 0 6 5 4 10 -4 7 -11 10 -11 10 -2
0 7 4 11 9 7 5 -3 12 -1 16 5 4 6 10 8 14 6 15 -10 107 48 154 96 41 41 73 94
83 131 1 4 3 8 4 10 16 15 16 237 0 237 -4 0 -11 15 -18 33 -12 34 -29 58 -72
106 -28 31 -110 86 -110 74 0 -5 -4 -2 -8 4 -4 7 -17 14 -27 16 -11 1 -26 6
-32 10 -8 5 -13 3 -13 -5 0 -11 -2 -11 -9 0 -8 14 -127 15 -154 2z"/>
<path d="M2546 1449 c3 -5 0 -9 -6 -9 -17 0 -111 -42 -106 -47 2 -3 -3 -13
-12 -23 -36 -38 -52 -65 -48 -77 3 -7 1 -13 -4 -13 -5 0 -6 -7 -3 -17 5 -11 3
-14 -6 -8 -10 6 -11 3 -2 -12 7 -14 7 -23 -1 -31 -9 -9 -9 -12 1 -12 7 0 11
-10 10 -22 -7 -68 96 -182 171 -187 8 -1 33 -3 55 -4 22 -2 49 1 60 7 11 6 24
9 29 8 5 -2 12 1 15 5 3 5 18 16 34 26 29 19 75 85 84 121 10 42 10 116 0 116
-6 0 -7 3 -4 6 3 4 1 16 -5 28 -7 11 -12 25 -13 29 0 4 -7 12 -15 17 -8 5 -11
10 -7 10 14 0 -56 60 -70 60 -7 0 -13 5 -13 11 0 5 -5 7 -10 4 -6 -4 -17 -1
-25 5 -8 7 -15 9 -15 4 0 -5 -5 -2 -10 6 -5 8 -10 10 -10 4 0 -8 -13 -9 -40
-4 -22 4 -37 3 -34 -1z"/>
<path d="M2484 744 c-56 -40 -64 -48 -60 -60 3 -7 -2 -15 -10 -18 -9 -3 -14
-12 -11 -19 2 -6 0 -20 -5 -29 -5 -11 -5 -18 1 -18 5 0 8 -8 7 -17 -4 -27 41
-93 62 -93 6 0 12 -5 14 -10 6 -18 116 -18 123 -1 3 7 8 11 12 8 15 -15 78 85
69 109 -3 8 0 14 6 14 7 0 6 5 -2 15 -7 8 -10 15 -6 15 4 0 0 13 -8 29 -9 16
-12 31 -9 35 4 3 -1 6 -10 6 -9 0 -21 8 -26 18 -6 9 -11 13 -11 7 0 -5 -4 -4
-9 4 -12 18 -102 22 -127 5z"/>
<path d="M2255 360 c-3 -5 -12 -7 -20 -4 -18 7 -74 -52 -70 -74 2 -9 4 -25 4
-34 1 -9 13 -29 29 -43 20 -19 36 -25 65 -23 20 1 37 6 37 11 0 4 5 5 10 2 6
-3 10 0 10 7 0 8 5 19 12 26 18 18 19 50 3 82 -17 32 -70 66 -80 50z"/>
</g>
</svg>
