<svg width="208" height="39" viewBox="0 0 208 39" fill="none" xmlns="http://www.w3.org/2000/svg">
<rect x="0.5" y="0.5" width="207" height="38" rx="4.5" fill="#525254" fill-opacity="0.5"/>
<rect x="0.5" y="0.5" width="207" height="38" rx="4.5" stroke="white"/>
<path d="M21.6667 18.25V15.3333C21.6667 15.1123 21.5789 14.9004 21.4226 14.7441C21.2663 14.5878 21.0543 14.5 20.8333 14.5H10.8333C10.6123 14.5 10.4004 14.5878 10.2441 14.7441C10.0878 14.9004 10 15.1123 10 15.3333V23.6667C10 23.8877 10.0878 24.0996 10.2441 24.2559C10.4004 24.4122 10.6123 24.5 10.8333 24.5H20.8333C21.0543 24.5 21.2663 24.4122 21.4226 24.2559C21.5789 24.0996 21.6667 23.8877 21.6667 23.6667V20.75L25 24.0833V14.9167L21.6667 18.25Z" fill="#F6F6F6"/>
<path d="M37.7185 18.704V24H36.5665V12.672H39.8945C42.1345 12.672 43.7665 13.488 43.7665 15.696C43.7665 17.376 42.5185 18.432 40.8705 18.608L44.1825 24H42.7745L39.6385 18.704H37.7185ZM37.7185 13.664V17.712H39.7185C41.5585 17.712 42.6145 17.04 42.6145 15.696C42.6145 14.208 41.4785 13.664 39.7665 13.664H37.7185ZM48.0966 18.608V22.976H54.1606V24H46.9446V12.672H53.9686V13.696H48.0966V17.6H53.5846V18.608H48.0966ZM57.2134 24V12.672H60.4134C62.7174 12.672 64.2374 13.664 64.2374 15.696C64.2374 17.728 62.6854 18.736 60.3814 18.736H58.3654V24H57.2134ZM58.3654 13.664V17.76H60.3174C62.1094 17.76 63.0854 17.04 63.0854 15.696C63.0854 14.304 62.0614 13.664 60.3174 13.664H58.3654ZM68.4466 18.704V24H67.2946V12.672H70.6226C72.8626 12.672 74.4946 13.488 74.4946 15.696C74.4946 17.376 73.2466 18.432 71.5986 18.608L74.9106 24H73.5026L70.3666 18.704H68.4466ZM68.4466 13.664V17.712H70.4466C72.2866 17.712 73.3426 17.04 73.3426 15.696C73.3426 14.208 72.2066 13.664 70.4946 13.664H68.4466ZM88.8728 18.336C88.8728 21.776 86.3448 24.288 82.9688 24.288C79.5928 24.288 77.0648 21.776 77.0648 18.336C77.0648 14.896 79.5928 12.384 82.9688 12.384C86.3448 12.384 88.8728 14.896 88.8728 18.336ZM87.6568 18.336C87.6568 15.696 85.8808 13.392 82.9688 13.392C80.0568 13.392 78.2808 15.696 78.2808 18.336C78.2808 20.976 80.0568 23.264 82.9688 23.264C85.8808 23.264 87.6568 20.976 87.6568 18.336ZM92.0665 24V12.672H95.8265C98.6585 12.672 101.779 14.56 101.779 18.336C101.779 22.112 98.6585 24 95.8265 24H92.0665ZM93.2185 13.696V22.976H95.5065C98.9145 22.976 100.562 20.672 100.562 18.336C100.562 16 98.9145 13.696 95.5065 13.696H93.2185ZM109.152 24.288C105.76 24.288 104.912 21.664 104.912 19.776V12.672H106.064V19.648C106.064 21.472 106.848 23.264 109.152 23.264C111.456 23.264 112.24 21.472 112.24 19.648V12.672H113.392V19.776C113.392 21.664 112.544 24.288 109.152 24.288ZM124.191 12.672V13.632L117.583 22.976H124.287V24H116.127V23.04L122.751 13.696H116.303V12.672H124.191ZM128.244 12.672V24H127.092V12.672H128.244ZM133.2 18.704V24H132.048V12.672H135.376C137.616 12.672 139.248 13.488 139.248 15.696C139.248 17.376 138 18.432 136.352 18.608L139.664 24H138.256L135.12 18.704H133.2ZM133.2 13.664V17.712H135.2C137.04 17.712 138.096 17.04 138.096 15.696C138.096 14.208 136.96 13.664 135.248 13.664H133.2ZM146.737 12.672L150.417 22.512H150.449L154.129 12.672H155.361L151.025 24H149.809L145.489 12.672H146.737ZM158.865 12.672V24H157.713V12.672H158.865ZM160.769 9.472L158.657 11.776H157.713L159.313 9.472H160.769ZM162.67 24V12.672H166.43C169.262 12.672 172.382 14.56 172.382 18.336C172.382 22.112 169.262 24 166.43 24H162.67ZM163.822 13.696V22.976H166.11C169.518 22.976 171.166 20.672 171.166 18.336C171.166 16 169.518 13.696 166.11 13.696H163.822ZM176.731 18.608V22.976H182.795V24H175.579V12.672H182.603V13.696H176.731V17.6H182.219V18.608H176.731ZM197.048 18.336C197.048 21.776 194.52 24.288 191.144 24.288C187.768 24.288 185.24 21.776 185.24 18.336C185.24 14.896 187.768 12.384 191.144 12.384C194.52 12.384 197.048 14.896 197.048 18.336ZM195.832 18.336C195.832 15.696 194.056 13.392 191.144 13.392C188.232 13.392 186.456 15.696 186.456 18.336C186.456 20.976 188.232 23.264 191.144 23.264C194.056 23.264 195.832 20.976 195.832 18.336Z" fill="white"/>
</svg>
