<svg width="28" height="20" viewBox="0 0 28 20" fill="none" xmlns="http://www.w3.org/2000/svg">
<path d="M27.4218 3.13865C27.2662 2.52866 26.9542 1.97163 26.5176 1.52445C26.081 1.07728 25.5356 0.756008 24.9369 0.593454C21.3076 0.158075 17.6543 -0.0381188 14 0.00610106C10.3457 -0.0381188 6.69245 0.158075 3.06306 0.593454C2.46444 0.756008 1.91898 1.07728 1.48241 1.52445C1.04583 1.97163 0.7338 2.52866 0.578185 3.13865C0.180622 5.4061 -0.0126698 7.70572 0.000714589 10.0089C-0.0133399 12.3239 0.179949 14.6354 0.578185 16.9147C0.741863 17.5149 1.05748 18.0608 1.49352 18.4981C1.92956 18.9354 2.47075 19.2486 3.06306 19.4065C6.69245 19.8419 10.3457 20.0381 14 19.9939C17.6543 20.0381 21.3076 19.8419 24.9369 19.4065C25.5292 19.2486 26.0704 18.9354 26.5065 18.4981C26.9425 18.0608 27.2581 17.5149 27.4218 16.9147C27.8201 14.6354 28.0133 12.3239 27.9993 10.0089C28.0127 7.70572 27.8194 5.4061 27.4218 3.13865ZM11.1301 14.2628V5.79064L18.4623 10.0089L11.1301 14.245V14.2628Z" fill="white"/>
</svg>
