<svg width="22" height="20" viewBox="0 0 22 20" fill="none" xmlns="http://www.w3.org/2000/svg">
<path d="M19.5278 4.62488C16.5278 -0.000152887 10.4028 -1.37516 5.65271 1.49986C1.02768 4.37488 -0.472332 10.6249 2.52769 15.25L2.77769 15.625L1.77768 19.375L5.52771 18.375L5.90272 18.625C7.52773 19.5 9.27774 20 11.0278 20C12.9028 20 14.7778 19.5 16.4028 18.5C21.0278 15.5 22.4028 9.37492 19.5278 4.62488ZM16.9028 14.25C16.4028 15 15.7778 15.5 14.9028 15.625C14.4028 15.625 13.7778 15.875 11.2778 14.875C9.15274 13.875 7.40273 12.2499 6.15272 10.3749C5.40271 9.49992 5.02771 8.37491 4.90271 7.2499C4.90271 6.2499 5.27771 5.37489 5.90272 4.74988C6.15272 4.49988 6.40272 4.37488 6.65272 4.37488H7.27773C7.52773 4.37488 7.77773 4.37488 7.90273 4.87488C8.15273 5.49989 8.77774 6.9999 8.77774 7.1249C8.90274 7.2499 8.90274 7.49991 8.77774 7.62491C8.90274 7.87491 8.77774 8.12491 8.65274 8.24991C8.52774 8.37491 8.40274 8.62491 8.27774 8.74991C8.02773 8.87492 7.90273 9.12492 8.02773 9.37492C8.52774 10.1249 9.15274 10.8749 9.77775 11.4999C10.5278 12.1249 11.2778 12.6249 12.1528 12.9999C12.4028 13.1249 12.6528 13.1249 12.7778 12.8749C12.9028 12.6249 13.5278 11.9999 13.7778 11.7499C14.0278 11.4999 14.1528 11.4999 14.4028 11.6249L16.4028 12.6249C16.6528 12.7499 16.9028 12.8749 17.0278 12.9999C17.1528 13.3749 17.1528 13.875 16.9028 14.25Z" fill="#35C62F"/>
</svg>
