<svg width="26" height="26" viewBox="0 0 26 26" fill="none" xmlns="http://www.w3.org/2000/svg">
<mask id="mask0_1311_6092" style="mask-type:alpha" maskUnits="userSpaceOnUse" x="0" y="0" width="26" height="26">
<path d="M13 26C20.1797 26 26 20.1797 26 13C26 5.8203 20.1797 0 13 0C5.8203 0 0 5.8203 0 13C0 20.1797 5.8203 26 13 26Z" fill="white"/>
</mask>
<g mask="url(#mask0_1311_6092)">
<path d="M0 0H26V26H0V0Z" fill="#6DA544"/>
<path d="M13 5.08829L23.7402 13L13 20.9117L2.25977 13L13 5.08829Z" fill="#FFDA44"/>
<path d="M8.84587 11.2226C8.59321 11.8038 8.46852 12.4324 8.48025 13.066L16.7068 15.5949C17.0692 15.0772 17.3184 14.4889 17.4381 13.8684C15.3763 10.5523 11.3595 9.79062 8.85095 11.2277L8.84587 11.2226Z" fill="#EEEEEE"/>
<path d="M12.9848 8.48045C12.2421 8.48233 11.5113 8.66721 10.857 9.01874C9.95658 9.50457 9.24762 10.2816 8.84609 11.2226C10.3847 10.8959 11.9813 10.968 13.4842 11.4319C14.9871 11.8959 16.3465 12.7363 17.4332 13.8734C17.6351 12.8454 17.4735 11.7791 16.9762 10.857C16.5883 10.1367 16.0121 9.53522 15.3092 9.11668C14.6062 8.69813 13.8029 8.47824 12.9848 8.48045V8.48045ZM10.7656 12.7207C9.99072 12.7181 9.22001 12.8346 8.48047 13.066C8.48902 13.7911 8.6719 14.5034 9.01367 15.143C9.29491 15.666 9.67646 16.1284 10.1365 16.5039C10.5966 16.8793 11.1261 17.1605 11.6948 17.3312C12.2636 17.5019 12.8604 17.5589 13.4512 17.4988C14.042 17.4388 14.6151 17.2629 15.1379 16.9812C15.7586 16.647 16.2924 16.1723 16.6969 15.5949C15.9841 14.705 15.0819 13.9852 14.0558 13.488C13.0298 12.9908 11.9058 12.7287 10.7656 12.7207V12.7207Z" fill="#0052B4"/>
</g>
</svg>
