<svg width="26" height="26" viewBox="0 0 26 26" fill="none" xmlns="http://www.w3.org/2000/svg">
<path d="M0.381789 9.87596C2.10678 2.91015 9.1582 -1.34308 16.124 0.381911C23.0964 2.1069 27.3431 9.15172 25.6181 16.1241C23.8931 23.0899 16.8482 27.3432 9.87585 25.6182C2.91003 23.8932 -1.34321 16.8484 0.381789 9.87596Z" fill="#E52A18"/>
<path d="M0.757324 8.63155H25.243C23.8275 4.6746 20.5157 1.46822 16.1243 0.38187C9.57981 -1.23778 2.96953 2.40972 0.757324 8.63155Z" fill="#E52A18"/>
<path d="M25.7236 15.6764C25.7302 15.6501 25.7368 15.6237 25.7434 15.5908C25.75 15.5447 25.7631 15.492 25.7697 15.446C25.7763 15.4196 25.7829 15.3867 25.7829 15.3604C25.7895 15.3077 25.8026 15.2616 25.8092 15.2089C25.8158 15.1826 25.8158 15.1563 25.8224 15.1365C25.8355 15.0773 25.8421 15.0114 25.8553 14.9522C25.8553 14.939 25.8619 14.9258 25.8619 14.9127C25.875 14.8402 25.8816 14.7612 25.8948 14.6888C25.8948 14.6691 25.9014 14.6493 25.9014 14.6295C25.908 14.5769 25.9146 14.5176 25.9211 14.465C25.9211 14.4386 25.9277 14.4123 25.9277 14.3859C25.9343 14.3333 25.9409 14.2872 25.9409 14.2411C25.9409 14.2148 25.9475 14.1884 25.9475 14.1621C25.9541 14.1094 25.9541 14.0633 25.9606 14.0107C25.9606 13.9843 25.9672 13.958 25.9672 13.9317C25.9738 13.8724 25.9738 13.8197 25.9804 13.7605C25.9804 13.7407 25.9804 13.7275 25.987 13.7078C25.9936 13.6354 25.9936 13.5564 26.0001 13.4839C26.0001 13.4708 26.0001 13.4576 26.0001 13.4444C26.0001 13.3852 26.0067 13.3193 26.0067 13.2601C26.0067 13.2338 26.0067 13.214 26.0067 13.1877C26.0067 13.135 26.0067 13.0823 26.0067 13.0362C26.0067 13.0099 26.0067 12.9836 26.0067 12.9572C26.0067 12.9046 26.0067 12.8585 26.0067 12.8058C26.0067 12.7795 26.0067 12.7531 26.0067 12.7334C26.0067 12.6807 26.0067 12.6214 26.0001 12.5688C26.0001 12.549 26.0001 12.5293 26.0001 12.5095C25.9936 12.3581 25.987 12.2132 25.9738 12.0618C25.9738 12.0421 25.9738 12.0223 25.9672 12.0026C25.9606 11.9499 25.9606 11.8972 25.9541 11.838C25.9541 11.8116 25.9475 11.7919 25.9475 11.7655C25.9409 11.7129 25.9343 11.6668 25.9343 11.6141C25.9343 11.5878 25.9277 11.568 25.9277 11.5417C25.9211 11.489 25.9145 11.4363 25.908 11.3771C25.908 11.3573 25.9014 11.3376 25.9014 11.3178C25.8816 11.173 25.8619 11.0215 25.8355 10.8767C25.8355 10.8635 25.829 10.8504 25.829 10.8372C25.8224 10.7779 25.8092 10.7187 25.796 10.6594C25.7895 10.6397 25.7895 10.6199 25.7829 10.6002C25.7763 10.5475 25.7631 10.4948 25.75 10.4422C25.7434 10.4224 25.7434 10.4027 25.7368 10.3763C25.7236 10.3237 25.717 10.271 25.7039 10.2117C25.6973 10.192 25.6973 10.1788 25.6907 10.1591C25.6775 10.0932 25.6578 10.0274 25.6446 9.96153L25.638 9.94837C25.6183 9.88253 25.6051 9.8101 25.5854 9.74426C25.4866 9.36239 25.3747 8.98711 25.243 8.61841H0.757307C0.61246 9.02003 0.487365 9.43482 0.382022 9.86277C-0.0525178 11.6075 -0.105189 13.3588 0.158168 15.0246C0.158168 15.0312 0.158168 15.0378 0.164752 15.0443C0.171336 15.1036 0.184504 15.1694 0.197672 15.2287C0.197672 15.2419 0.204256 15.255 0.204256 15.2682C0.217424 15.3274 0.224008 15.3801 0.237176 15.4394C0.237176 15.4591 0.24376 15.4723 0.250344 15.492C0.263511 15.5447 0.270095 15.5974 0.283263 15.6501C0.289847 15.6698 0.289847 15.6896 0.296431 15.7093C0.309599 15.762 0.316183 15.8081 0.329351 15.8607C0.335935 15.8871 0.342519 15.9068 0.349103 15.9332C0.362271 15.9793 0.368854 16.0253 0.382022 16.078C0.388606 16.1109 0.401774 16.1504 0.408358 16.1834C0.421526 16.236 0.434694 16.2887 0.447862 16.3414C0.46103 16.394 0.474198 16.4467 0.493949 16.4994C0.500533 16.5257 0.507117 16.5455 0.513701 16.5652C0.526869 16.6179 0.540037 16.664 0.559789 16.7167C0.566373 16.743 0.572957 16.7627 0.579541 16.7891C0.592708 16.8352 0.61246 16.8878 0.625628 16.9339C0.632212 16.9537 0.638796 16.98 0.64538 16.9998C0.658548 17.0459 0.6783 17.0985 0.691468 17.1446C0.698052 17.1644 0.704636 17.1907 0.711219 17.2105C0.730971 17.2631 0.744139 17.3092 0.763891 17.3619C0.770475 17.3751 0.770475 17.3882 0.777059 17.3948C0.790227 17.4277 0.796811 17.4541 0.809979 17.487H25.1969C25.2101 17.4541 25.2167 17.4277 25.2298 17.3948C25.2562 17.3158 25.2825 17.2434 25.3088 17.1644C25.3088 17.1578 25.3154 17.1512 25.3154 17.1446C25.3483 17.0459 25.3813 16.9405 25.4142 16.8418C25.4208 16.8286 25.4208 16.8154 25.4273 16.8023C25.4537 16.7101 25.4866 16.6113 25.5129 16.5126C25.5195 16.4928 25.5261 16.4731 25.5327 16.4533C25.5656 16.3414 25.5919 16.2229 25.6249 16.1109C25.6446 16.0385 25.6644 15.9595 25.6775 15.8871C25.6841 15.8607 25.6907 15.841 25.6907 15.8147C25.6973 15.7752 25.7104 15.7225 25.7236 15.6764Z" fill="#FFD300"/>
</svg>
