<svg width="26" height="26" viewBox="0 0 26 26" fill="none" xmlns="http://www.w3.org/2000/svg">
<path d="M0.381789 9.87596C2.10678 2.91015 9.1582 -1.34308 16.124 0.381911C23.0964 2.1069 27.3431 9.15172 25.6181 16.1241C23.8931 23.0899 16.8482 27.3432 9.87585 25.6182C2.91003 23.8932 -1.34321 16.8484 0.381789 9.87596Z" fill="#F6F6F6"/>
<path d="M25.0255 8.05881H14.9521V10.0472H25.6642C25.5061 9.36243 25.2889 8.69745 25.0255 8.05881ZM22.4512 4.07552H14.9521V6.07046H23.9918C23.5507 5.35939 23.0306 4.68783 22.4512 4.07552ZM3.61452 21.9904H22.3919C22.9713 21.3847 23.498 20.7197 23.9589 20.0021H2.04754C2.50184 20.7132 3.02855 21.3781 3.61452 21.9904ZM16.124 0.381927C15.7356 0.289752 15.3405 0.210745 14.9521 0.151489V2.08717H20.0612C18.8893 1.32343 17.5659 0.737461 16.124 0.381927ZM25.967 12.0355H14.9521V14.0305H25.9604C26.0131 13.3589 26.0131 12.6939 25.967 12.0355ZM1.00728 18.0137H24.9992C25.2494 17.408 25.4601 16.7825 25.6181 16.1241C25.6247 16.0912 25.6312 16.0583 25.6444 16.0188H0.355469C0.520067 16.7035 0.737338 17.3685 1.00728 18.0137ZM9.87586 25.6182C10.6462 25.8091 11.4165 25.9276 12.1802 25.9737H13.8328C16.0318 25.8355 18.1321 25.131 19.9493 23.9788H6.044C7.19619 24.7096 8.48006 25.2693 9.87586 25.6182Z" fill="#E52A18"/>
<path d="M13.971 13.2996L13.6879 13.0955L13.4048 13.2996L13.5101 12.9704L13.227 12.7663H13.5759L13.6813 12.4371L13.7866 12.7663H14.1356L13.8525 12.9704L13.971 13.2996ZM12.5884 2.82453L12.6937 3.15373L12.4106 2.94962L12.1275 3.15373L12.2328 2.82453L11.9497 2.62043H12.2987L12.404 2.29123L12.5093 2.62043H12.8583L12.5884 2.82453ZM12.5884 5.82022L12.6937 6.14942L12.4106 5.94532L12.1275 6.14942L12.2328 5.82022L11.9497 5.61612H12.2987L12.404 5.28692L12.5093 5.61612H12.8583L12.5884 5.82022ZM12.562 8.75008L12.6674 9.07928L12.3842 8.87518L12.1011 9.07928L12.2065 8.75008L11.9234 8.54598H12.2723L12.3777 8.21678L12.483 8.54598H12.832L12.562 8.75008ZM12.641 11.9762L12.3579 11.7721L12.0748 11.9762L12.1801 11.647L11.897 11.4429H12.246L12.3513 11.1137L12.4567 11.4429H12.8056L12.5225 11.647L12.641 11.9762ZM11.2584 4.273L11.3637 4.60219L11.0806 4.39809L10.7975 4.60219L10.9029 4.273L10.6198 4.06889H10.9687L11.074 3.7397L11.1794 4.06889H11.5283L11.2584 4.273ZM11.2584 7.17652L11.3637 7.50571L11.0806 7.30161L10.7975 7.50571L10.9029 7.17652L10.6198 6.97241H10.9687L11.074 6.64322L11.1794 6.97241H11.5283L11.2584 7.17652ZM11.2584 10.1393L11.3637 10.4685L11.0806 10.2644L10.7975 10.4685L10.9029 10.1393L10.6198 9.93519H10.9687L11.074 9.60599L11.1794 9.93519H11.5283L11.2584 10.1393ZM11.3703 13.2996L11.0872 13.0955L10.8041 13.2996L10.9094 12.9704L10.6263 12.7663H10.9753L11.0806 12.4371L11.186 12.7663H11.5349L11.2584 12.9704L11.3703 13.2996ZM9.98769 2.82453L10.093 3.15373L9.80993 2.94962L9.52681 3.15373L9.63216 2.82453L9.34905 2.62043H9.698L9.80334 2.29123L9.90868 2.62043H10.2576L9.98769 2.82453ZM9.98769 5.82022L10.093 6.14942L9.80993 5.94532L9.52681 6.14942L9.63216 5.82022L9.34905 5.61612H9.698L9.80334 5.28692L9.90868 5.61612H10.2576L9.98769 5.82022ZM9.96136 8.75008L10.0667 9.07928L9.78359 8.87518L9.50048 9.07928L9.60582 8.75008L9.32271 8.54598H9.67166L9.77701 8.21678L9.88235 8.54598H10.2313L9.96136 8.75008ZM10.0469 11.9762L9.76384 11.7721L9.48073 11.9762L9.58607 11.647L9.30296 11.4429H9.65191L9.75725 11.1137L9.8626 11.4429H10.2115L9.92844 11.647L10.0469 11.9762ZM8.66432 1.37606L8.76966 1.70526L8.48655 1.50116L8.20344 1.70526L8.30878 1.37606L8.02567 1.17196H8.37462L8.47997 0.842761L8.58531 1.17196H8.93426L8.66432 1.37606ZM8.66432 4.273L8.76966 4.60219L8.48655 4.39809L8.20344 4.60219L8.30878 4.273L8.02567 4.06889H8.37462L8.47997 3.7397L8.58531 4.06889H8.93426L8.66432 4.273ZM8.66432 7.17652L8.76966 7.50571L8.48655 7.30161L8.20344 7.50571L8.30878 7.17652L8.02567 6.97241H8.37462L8.47997 6.64322L8.58531 6.97241H8.93426L8.66432 7.17652ZM8.66432 10.1393L8.76966 10.4685L8.48655 10.2644L8.20344 10.4685L8.30878 10.1393L8.02567 9.93519H8.37462L8.47997 9.60599L8.58531 9.93519H8.93426L8.66432 10.1393ZM8.76966 13.2996L8.48655 13.0955L8.20344 13.2996L8.30878 12.9704L8.02567 12.7663H8.37462L8.47997 12.4371L8.58531 12.7663H8.93426L8.65115 12.9704L8.76966 13.2996ZM7.38703 2.71919L7.49238 3.04838L7.20927 2.84428L6.92616 3.04838L7.0315 2.71919L6.74839 2.51508H7.09734L7.20268 2.18589L7.30802 2.51508H7.65697L7.38703 2.71919ZM7.38703 5.71488L7.49238 6.04408L7.20927 5.83998L6.92616 6.04408L7.0315 5.71488L6.74839 5.51078H7.09734L7.20268 5.18158L7.30802 5.51078H7.65697L7.38703 5.71488ZM7.3607 8.64474L7.46604 8.97394L7.18293 8.76983L6.89982 8.97394L7.00516 8.64474L6.72205 8.44063H7.071L7.17635 8.11144L7.28169 8.44063H7.63064L7.3607 8.64474ZM7.44629 11.8775L7.16318 11.6734L6.88007 11.8775L6.98541 11.5483L6.7023 11.3442H7.05125L7.15659 11.015L7.26194 11.3442H7.61089L7.32778 11.5483L7.44629 11.8775ZM6.06366 4.273L6.169 4.60219L5.88589 4.39809L5.60278 4.60219L5.70812 4.273L5.42501 4.06889H5.77396L5.88589 3.7397L5.99123 4.06889H6.34018L6.06366 4.273ZM6.06366 7.17652L6.169 7.50571L5.88589 7.30161L5.60278 7.50571L5.70812 7.17652L5.42501 6.97241H5.77396L5.88589 6.64322L5.99123 6.97241H6.34018L6.06366 7.17652ZM6.06366 10.1393L6.169 10.4685L5.88589 10.2644L5.60278 10.4685L5.70812 10.1393L5.42501 9.93519H5.77396L5.88589 9.60599L5.99123 9.93519H6.34018L6.06366 10.1393ZM6.17559 13.2996L5.89248 13.0955L5.60936 13.2996L5.71471 12.9704L5.4316 12.7663H5.78055L5.89248 12.4371L5.99782 12.7663H6.34677L6.06366 12.9704L6.17559 13.2996ZM4.79296 5.68196L4.8983 6.01116L4.61519 5.80706L4.33208 6.01116L4.43742 5.68196L4.15431 5.47786H4.50326L4.6086 5.14866L4.71395 5.47786H5.06948L4.79296 5.68196ZM4.76662 8.6184L4.87196 8.9476L4.58885 8.7435L4.30574 8.9476L4.41109 8.6184L4.12798 8.4143H4.47693L4.58227 8.0851L4.68761 8.4143H5.03656L4.76662 8.6184ZM4.84563 11.8445L4.56252 11.6404L4.27941 11.8445L4.38475 11.5153L4.10164 11.3112H4.45059L4.55593 10.982L4.66128 11.3112H5.01023L4.72712 11.5153L4.84563 11.8445ZM10.9819 1.17196L11.0872 0.842761L11.1926 1.17196H11.5415L11.2584 1.37606L11.3637 1.70526L11.0806 1.50116L10.7975 1.70526L10.9029 1.37606L10.6198 1.17196H10.9819ZM13.5825 9.93519L13.6879 9.60599L13.7932 9.93519H14.1422L13.8591 10.1393L13.9644 10.4685L13.6813 10.2644L13.3982 10.4685L13.5035 10.1393L13.2204 9.93519H13.5825ZM13.5825 6.97241L13.6879 6.64322L13.7932 6.97241H14.1422L13.8591 7.17652L13.9644 7.50571L13.6813 7.30161L13.3982 7.50571L13.5035 7.17652L13.2204 6.97241H13.5825ZM13.5825 4.06889L13.6879 3.7397L13.7932 4.06889H14.1422L13.8591 4.273L13.9644 4.60219L13.6813 4.39809L13.3982 4.60219L13.5035 4.273L13.2204 4.06889H13.5825ZM13.5825 1.17196L13.6879 0.842761L13.7932 1.17196H14.1422L13.8591 1.37606L13.9644 1.70526L13.6813 1.50116L13.3982 1.70526L13.5035 1.37606L13.2204 1.17196H13.5825ZM3.463 7.17652L3.56834 7.50571L3.28523 7.30161L3.00212 7.50571L3.10746 7.17652L2.82435 6.97241H3.1733L3.27865 6.64322L3.38399 6.97241H3.73294L3.463 7.17652ZM3.463 10.1393L3.56834 10.4685L3.28523 10.2644L3.00212 10.4685L3.10746 10.1393L2.82435 9.93519H3.1733L3.27865 9.60599L3.38399 9.93519H3.73294L3.463 10.1393ZM3.57492 13.2996L3.29181 13.0955L3.0087 13.2996L3.11405 12.9704L2.83094 12.7663H3.17989L3.28523 12.4371L3.39057 12.7663H3.73952L3.45641 12.9704L3.57492 13.2996ZM2.16596 8.56573L2.2713 8.89493L1.98819 8.69082L1.70508 8.89493L1.81043 8.56573L1.52732 8.36163H1.87627L1.98161 8.03243L2.08695 8.36163H2.4359L2.16596 8.56573ZM2.24497 11.7919L1.96186 11.5878L1.67875 11.7919L1.78409 11.4627L1.51415 11.2586H1.8631L1.96844 10.9294L2.07378 11.2586H2.42273L2.13962 11.4627L2.24497 11.7919ZM0.974264 13.2996L0.691155 13.0955L0.414629 13.2996L0.519972 12.9704L0.236862 12.7663H0.585811L0.691155 12.4371L0.796498 12.7663H1.14545L0.862337 12.9704L0.974264 13.2996ZM14.952 0.151446C14.8269 0.131695 13.8788 0.0263515 13.7471 0.0131836L11.4098 0.0987749C8.99352 0.395052 6.72205 1.36948 4.85221 2.8772L4.8983 3.02205L4.77979 2.93646C4.34525 3.2854 3.93704 3.66727 3.55517 4.06889H3.74611L3.463 4.273L3.56834 4.60219L3.29181 4.40468L3.17989 4.48368C2.91653 4.78654 2.66634 5.10257 2.4359 5.42519H2.4754L2.3964 5.48444C2.33714 5.56345 2.28447 5.64904 2.22521 5.72805L2.29764 5.95849L2.14621 5.84656C1.35613 7.04484 0.75041 8.40113 0.388293 9.87594C0.381709 9.89569 0.381709 9.91544 0.375125 9.93519H0.592395L0.697739 9.60599L0.803082 9.93519H1.15203L0.868921 10.1393L0.974264 10.4685L0.691155 10.2644L0.414629 10.4685L0.519972 10.1393L0.355373 10.0208C0.0327596 11.3771 -0.0594157 12.7334 0.0459275 14.0502H14.9586V0.151446H14.952Z" fill="#24356B"/>
</svg>
